<?xml version="1.0" standalone="no"?>
<!DOCTYPE svg PUBLIC "-//W3C//DTD SVG 20010904//EN"
 "http://www.w3.org/TR/2001/REC-SVG-20010904/DTD/svg10.dtd">
<svg version="1.0" xmlns="http://www.w3.org/2000/svg"
 width="700.000000pt" height="700.000000pt" viewBox="0 0 700.000000 700.000000"
 preserveAspectRatio="xMidYMid meet">
<metadata>
Created by potrace 1.14, written by Peter Selinger 2001-2017
</metadata>
<g transform="translate(0.000000,700.000000) scale(0.100000,-0.100000)"
fill="#000000" stroke="none">
<path d="M3949 6435 c-2 -1 -44 -6 -94 -9 -49 -4 -108 -9 -130 -11 -22 -1 -76
-6 -120 -9 -44 -4 -105 -9 -135 -11 -30 -3 -86 -7 -125 -10 -38 -4 -95 -8
-125 -11 -30 -2 -95 -6 -145 -9 -49 -3 -117 -7 -150 -9 -67 -5 -282 -14 -480
-22 -202 -7 -674 -7 -835 1 -397 18 -518 6 -677 -70 -86 -40 -158 -108 -193
-180 -19 -41 -24 -66 -24 -145 -1 -82 3 -102 25 -150 24 -50 102 -140 122
-140 5 0 21 -8 35 -19 15 -10 83 -41 152 -69 130 -53 201 -86 234 -112 100
-77 147 -148 166 -252 7 -33 11 -660 12 -1703 1 -1746 2 -1716 -44 -1825 -11
-24 -35 -66 -55 -92 -52 -68 -96 -97 -287 -189 -140 -68 -200 -153 -200 -284
1 -189 142 -327 429 -419 44 -14 96 -28 115 -31 19 -3 49 -10 65 -15 17 -5 50
-12 75 -15 25 -4 52 -9 60 -10 47 -9 163 -21 300 -32 122 -10 807 -10 925 0
111 10 170 16 215 22 19 3 53 8 75 11 22 3 95 16 161 29 355 71 575 205 627
381 31 105 4 237 -59 296 -16 14 -87 56 -159 92 -71 36 -148 83 -171 105 -106
99 -165 239 -195 459 -17 123 -18 709 -1 740 34 61 101 67 437 37 278 -25 645
-25 735 0 8 2 40 7 70 10 45 5 146 25 250 50 69 17 207 63 301 100 538 216
923 621 1075 1128 87 292 102 630 40 932 -32 155 -94 327 -163 448 -18 33 -33
60 -33 62 0 6 -85 131 -120 177 -61 80 -275 283 -367 348 -188 131 -383 228
-608 301 -66 22 -129 41 -140 43 -11 3 -49 11 -85 20 -36 8 -83 18 -105 21
-22 4 -47 8 -55 10 -8 3 -42 7 -74 11 -33 3 -69 8 -80 11 -24 5 -462 13 -467
8z m-127 -989 c261 -62 453 -252 549 -541 10 -29 14 -42 24 -87 17 -70 31
-226 28 -313 -2 -55 -4 -107 -4 -115 0 -8 -9 -61 -20 -118 -45 -236 -143 -403
-299 -510 -33 -23 -62 -42 -64 -42 -2 0 -21 -8 -42 -17 -22 -9 -41 -17 -44
-18 -3 0 -25 -6 -50 -13 -166 -46 -416 -30 -511 32 -20 14 -44 41 -54 63 -17
36 -18 82 -17 801 1 713 2 766 19 800 24 48 61 73 130 88 77 16 272 11 355
-10z"/>
</g>
</svg>
